<?xml version="1.0" encoding="utf-8"?>
<!-- Generator: Adobe Illustrator 19.2.1, SVG Export Plug-In . SVG Version: 6.00 Build 0)  -->
<svg version="1.1" id="Capa_1" xmlns="http://www.w3.org/2000/svg" xmlns:xlink="http://www.w3.org/1999/xlink" x="0px" y="0px"
	 viewBox="0 0 792 792" style="enable-background:new 0 0 792 792;" xml:space="preserve">
<g>
	<path d="M454.4,792H316c-10.5,0-18.9-8.5-18.9-18.9V448h-96.9c-10.5,0-18.9-8.5-18.9-18.9V295c0-10.5,8.5-18.9,18.9-18.9h96.9
		v-79.9C297.1,75.1,370.4,0,488.4,0c52.7,0,95.2,4.1,105.9,5.5c9.4,1.2,16.4,9.3,16.4,18.8v119.8c0,10.5-8.5,18.9-18.9,18.9
		l-70.9,0.1c-40.9,0-47.5,13.6-47.5,46.3v66.7h113.8c5.5,0,10.6,2.3,14.2,6.4c3.6,4.1,5.3,9.5,4.6,14.9l-17.3,134
		c-1.2,9.5-9.3,16.6-18.8,16.6h-96.5v325.1C473.3,783.6,464.9,792,454.4,792z M334.9,754.1h100.5V429.1c0-10.5,8.5-18.9,18.9-18.9
		h98.8l12.4-96.2H454.4c-10.5,0-18.9-8.5-18.9-18.9v-85.6c0-36.1,8.9-84.2,85.4-84.2l52,0V41.4c-19.4-1.7-50.5-3.5-84.5-3.5
		c-96.1,0-153.4,59.2-153.4,158.3V295c0,10.5-8.5,18.9-18.9,18.9h-96.9v96.2H316c10.5,0,18.9,8.5,18.9,18.9L334.9,754.1L334.9,754.1
		z"/>
</g>
</svg>
