<?xml version="1.0" encoding="utf-8"?>
<!-- Generator: Adobe Illustrator 19.2.1, SVG Export Plug-In . SVG Version: 6.00 Build 0)  -->
<svg version="1.1" id="Capa_1" xmlns="http://www.w3.org/2000/svg" xmlns:xlink="http://www.w3.org/1999/xlink" x="0px" y="0px"
	 viewBox="0 0 612 612" style="enable-background:new 0 0 612 612;" xml:space="preserve">
<g>
	<g id="instagram">
		<g>
			<path d="M513.4,84.9h-56.2c-18.3,0-33.3,14.9-33.3,33.3v56.1c0,18.3,14.9,33.3,33.3,33.3h56.2c18.3,0,33.3-14.9,33.3-33.3v-56.1
				C546.7,99.8,531.7,84.9,513.4,84.9z M517.5,174.3c0,2.3-1.9,4.1-4.1,4.1h-56.2c-2.3,0-4.1-1.9-4.1-4.1v-56.1
				c0-2.3,1.9-4.1,4.1-4.1h56.2c2.3,0,4.1,1.9,4.1,4.1V174.3z M480.9,7.3H131.1C58.8,7.3,0,66.1,0,138.4v335.1
				c0,72.3,58.8,131.1,131.1,131.1h349.7c72.3,0,131.1-58.8,131.1-131.1V138.4C612,66.1,553.2,7.3,480.9,7.3z M582.9,473.6
				c0,56.2-45.8,102-102,102H131.1c-56.2,0-102-45.8-102-102V255H176c-27.8,31-44.9,71.8-44.9,116.6c0,96.4,78.4,174.9,174.9,174.9
				S480.9,468,480.9,371.6c0-44.8-17.1-85.6-44.9-116.6h146.9V473.6z M306,225.9c80.3,0,145.7,65.4,145.7,145.7
				c0,80.3-65.4,145.7-145.7,145.7s-145.7-65.4-145.7-145.7C160.3,291.2,225.7,225.9,306,225.9z M582.9,225.9H402.4
				c-27.7-18.4-60.8-29.1-96.4-29.1c-35.6,0-68.8,10.8-96.4,29.1H29.1v-87.4c0-56.2,45.8-102,102-102h349.7c56.2,0,102,45.8,102,102
				V225.9z M306,473.6c56.2,0,102-45.8,102-102c0-56.2-45.8-102-102-102s-102,45.8-102,102C204,427.8,249.8,473.6,306,473.6z
				 M306,298.7c40.2,0,72.9,32.7,72.9,72.9c0,40.2-32.7,72.9-72.9,72.9s-72.9-32.7-72.9-72.9C233.1,331.4,265.8,298.7,306,298.7z"/>
		</g>
	</g>
</g>
</svg>
